<mxfile host="app.diagrams.net" modified="2023-06-05T06:43:16.053Z" agent="Mozilla/5.0 (Windows NT 10.0; Win64; x64) AppleWebKit/537.36 (KHTML, like Gecko) Chrome/113.0.0.0 Safari/537.36" etag="AlHpR8E2Xr5Yb1N6pd71" version="21.3.5" type="device">
  <diagram name="Page-1" id="GcsSYwR-1EW51ADL5NTL">
    <mxGraphModel dx="1434" dy="796" grid="0" gridSize="10" guides="1" tooltips="1" connect="1" arrows="1" fold="1" page="1" pageScale="1" pageWidth="850" pageHeight="1100" math="0" shadow="0">
      <root>
        <mxCell id="0" />
        <mxCell id="1" parent="0" />
        <mxCell id="GCYgzdkRUOrWLfcpFG6K-26" value="" style="rounded=0;whiteSpace=wrap;html=1;fillColor=none;" parent="1" vertex="1">
          <mxGeometry x="250" y="510" width="800" height="60" as="geometry" />
        </mxCell>
        <mxCell id="GCYgzdkRUOrWLfcpFG6K-33" value="" style="rounded=0;whiteSpace=wrap;html=1;fillColor=none;" parent="1" vertex="1">
          <mxGeometry x="250" y="584" width="800" height="77" as="geometry" />
        </mxCell>
        <mxCell id="GCYgzdkRUOrWLfcpFG6K-24" value="" style="rounded=0;whiteSpace=wrap;html=1;fillColor=none;" parent="1" vertex="1">
          <mxGeometry x="250" y="450" width="800" height="60" as="geometry" />
        </mxCell>
        <mxCell id="GCYgzdkRUOrWLfcpFG6K-3" value="Simulate Data" style="rounded=0;whiteSpace=wrap;html=1;fontSize=15;fillColor=#0781c4;fontColor=#FFFFFF;fontStyle=1" parent="1" vertex="1">
          <mxGeometry x="250" y="290" width="160" height="40" as="geometry" />
        </mxCell>
        <mxCell id="GCYgzdkRUOrWLfcpFG6K-4" value="Split Data" style="rounded=0;whiteSpace=wrap;html=1;fontSize=15;fillColor=#0aa29b;fontColor=#FFFFFF;fontStyle=1" parent="1" vertex="1">
          <mxGeometry x="410" y="290" width="160" height="40" as="geometry" />
        </mxCell>
        <mxCell id="GCYgzdkRUOrWLfcpFG6K-5" value="Fit PWE Model &amp;amp; Model Selection" style="rounded=0;whiteSpace=wrap;html=1;fontSize=15;fillColor=#92c722;fontColor=#FFFFFF;fontStyle=1" parent="1" vertex="1">
          <mxGeometry x="570" y="290" width="160" height="40" as="geometry" />
        </mxCell>
        <mxCell id="GCYgzdkRUOrWLfcpFG6K-6" value="Prediction" style="rounded=0;whiteSpace=wrap;html=1;fontSize=15;fillColor=#e32501;fontColor=#FFFFFF;fontStyle=1" parent="1" vertex="1">
          <mxGeometry x="890" y="290" width="160" height="40" as="geometry" />
        </mxCell>
        <mxCell id="GCYgzdkRUOrWLfcpFG6K-8" value="&lt;font data-font-src=&quot;https://fonts.googleapis.com/css?family=IBM+Plex+Mono&quot; face=&quot;IBM Plex Mono&quot; style=&quot;font-size: 16px;&quot;&gt;simdata()&lt;/font&gt;" style="text;html=1;strokeColor=none;fillColor=none;align=center;verticalAlign=middle;whiteSpace=wrap;rounded=0;fontSize=16;fontStyle=1" parent="1" vertex="1">
          <mxGeometry x="275" y="455" width="110" height="50" as="geometry" />
        </mxCell>
        <mxCell id="GCYgzdkRUOrWLfcpFG6K-9" value="&lt;font data-font-src=&quot;https://fonts.googleapis.com/css?family=IBM+Plex+Mono&quot; face=&quot;IBM Plex Mono&quot; style=&quot;font-size: 16px;&quot;&gt;cut_dat()&lt;/font&gt;" style="text;html=1;strokeColor=none;fillColor=none;align=center;verticalAlign=middle;whiteSpace=wrap;rounded=0;fontSize=16;fontStyle=1" parent="1" vertex="1">
          <mxGeometry x="435" y="455" width="110" height="50" as="geometry" />
        </mxCell>
        <mxCell id="GCYgzdkRUOrWLfcpFG6K-10" value="&lt;font data-font-src=&quot;https://fonts.googleapis.com/css?family=IBM+Plex+Mono&quot; face=&quot;IBM Plex Mono&quot; style=&quot;font-size: 16px;&quot;&gt;pwexp.fit()&lt;br&gt;cv.pwexp.fit()&lt;br&gt;&lt;/font&gt;" style="text;html=1;strokeColor=none;fillColor=none;align=center;verticalAlign=middle;whiteSpace=wrap;rounded=0;fontSize=16;fontStyle=1" parent="1" vertex="1">
          <mxGeometry x="595" y="455" width="110" height="50" as="geometry" />
        </mxCell>
        <mxCell id="GCYgzdkRUOrWLfcpFG6K-12" value="Bootstrap CI" style="rounded=0;whiteSpace=wrap;html=1;fontSize=15;fillColor=#fda201;fontColor=#FFFFFF;fontStyle=1" parent="1" vertex="1">
          <mxGeometry x="730" y="290" width="160" height="40" as="geometry" />
        </mxCell>
        <mxCell id="GCYgzdkRUOrWLfcpFG6K-13" value="&lt;font data-font-src=&quot;https://fonts.googleapis.com/css?family=IBM+Plex+Mono&quot; face=&quot;IBM Plex Mono&quot; style=&quot;font-size: 16px;&quot;&gt;boot.pwexp.fit()&lt;/font&gt;" style="text;html=1;strokeColor=none;fillColor=none;align=center;verticalAlign=middle;whiteSpace=wrap;rounded=0;fontSize=16;fontStyle=1" parent="1" vertex="1">
          <mxGeometry x="755" y="455" width="110" height="50" as="geometry" />
        </mxCell>
        <mxCell id="GCYgzdkRUOrWLfcpFG6K-14" value="&lt;font data-font-src=&quot;https://fonts.googleapis.com/css?family=IBM+Plex+Mono&quot; face=&quot;IBM Plex Mono&quot; style=&quot;font-size: 16px;&quot;&gt;predict()&lt;/font&gt;" style="text;html=1;strokeColor=none;fillColor=none;align=center;verticalAlign=middle;whiteSpace=wrap;rounded=0;fontSize=16;fontStyle=1" parent="1" vertex="1">
          <mxGeometry x="915" y="455" width="110" height="50" as="geometry" />
        </mxCell>
        <mxCell id="GCYgzdkRUOrWLfcpFG6K-16" value="&lt;font data-font-src=&quot;https://fonts.googleapis.com/css?family=IBM+Plex+Mono&quot; face=&quot;IBM Plex Mono&quot; style=&quot;font-size: 14px;&quot;&gt;dpwexp(), ppwexp(), qpwexp(), rpwexp()&lt;br style=&quot;font-size: 14px;&quot;&gt;&lt;/font&gt;" style="text;html=1;strokeColor=none;fillColor=none;align=left;verticalAlign=middle;whiteSpace=wrap;rounded=0;fontSize=14;fontStyle=0" parent="1" vertex="1">
          <mxGeometry x="471" y="610" width="520" height="26" as="geometry" />
        </mxCell>
        <mxCell id="GCYgzdkRUOrWLfcpFG6K-17" value="&lt;font data-font-src=&quot;https://fonts.googleapis.com/css?family=IBM+Plex+Mono&quot; face=&quot;IBM Plex Mono&quot; style=&quot;font-size: 14px;&quot;&gt;ppwexp_conditional(),&amp;nbsp;qpwexp_conditional(),&amp;nbsp;rpwexp_conditional()&lt;br style=&quot;font-size: 14px;&quot;&gt;&lt;/font&gt;" style="text;html=1;strokeColor=none;fillColor=none;align=left;verticalAlign=middle;whiteSpace=wrap;rounded=0;fontSize=14;fontStyle=0" parent="1" vertex="1">
          <mxGeometry x="498" y="630" width="578" height="32" as="geometry" />
        </mxCell>
        <mxCell id="GCYgzdkRUOrWLfcpFG6K-18" value="&lt;font data-font-src=&quot;https://fonts.googleapis.com/css?family=IBM+Plex+Mono&quot; face=&quot;IBM Plex Mono&quot; style=&quot;font-size: 16px;&quot;&gt;plot_survival()&lt;br&gt;plot_event()&lt;br&gt;&lt;/font&gt;" style="text;html=1;strokeColor=none;fillColor=none;align=center;verticalAlign=middle;whiteSpace=wrap;rounded=0;fontSize=16;fontStyle=1" parent="1" vertex="1">
          <mxGeometry x="275" y="500" width="110" height="80" as="geometry" />
        </mxCell>
        <mxCell id="GCYgzdkRUOrWLfcpFG6K-19" value="&lt;font data-font-src=&quot;https://fonts.googleapis.com/css?family=IBM+Plex+Mono&quot; face=&quot;IBM Plex Mono&quot; style=&quot;font-size: 16px;&quot;&gt;plot_survival()&lt;br&gt;&lt;/font&gt;" style="text;html=1;strokeColor=none;fillColor=none;align=center;verticalAlign=middle;whiteSpace=wrap;rounded=0;fontSize=16;fontStyle=1" parent="1" vertex="1">
          <mxGeometry x="595" y="500" width="110" height="80" as="geometry" />
        </mxCell>
        <mxCell id="GCYgzdkRUOrWLfcpFG6K-20" value="&lt;font data-font-src=&quot;https://fonts.googleapis.com/css?family=IBM+Plex+Mono&quot; face=&quot;IBM Plex Mono&quot; style=&quot;font-size: 16px;&quot;&gt;plot_event()&lt;br&gt;&lt;/font&gt;" style="text;html=1;strokeColor=none;fillColor=none;align=center;verticalAlign=middle;whiteSpace=wrap;rounded=0;fontSize=16;fontStyle=1" parent="1" vertex="1">
          <mxGeometry x="915" y="500" width="110" height="80" as="geometry" />
        </mxCell>
        <mxCell id="GCYgzdkRUOrWLfcpFG6K-25" value="Main function" style="text;html=1;strokeColor=none;fillColor=none;align=left;verticalAlign=middle;whiteSpace=wrap;rounded=0;fontStyle=1;fontSize=20;" parent="1" vertex="1">
          <mxGeometry x="73" y="465" width="145" height="30" as="geometry" />
        </mxCell>
        <mxCell id="GCYgzdkRUOrWLfcpFG6K-32" value="Visualization" style="text;html=1;strokeColor=none;fillColor=none;align=left;verticalAlign=middle;whiteSpace=wrap;rounded=0;fontStyle=1;fontSize=20;" parent="1" vertex="1">
          <mxGeometry x="73" y="522.5" width="145" height="35" as="geometry" />
        </mxCell>
        <mxCell id="GCYgzdkRUOrWLfcpFG6K-34" value="Auxiliary function" style="text;html=1;strokeColor=none;fillColor=none;align=left;verticalAlign=middle;whiteSpace=wrap;rounded=0;fontStyle=1;fontSize=20;" parent="1" vertex="1">
          <mxGeometry x="73" y="603" width="175" height="35" as="geometry" />
        </mxCell>
        <mxCell id="GCYgzdkRUOrWLfcpFG6K-35" value="" style="rounded=0;whiteSpace=wrap;html=1;fillColor=none;" parent="1" vertex="1">
          <mxGeometry x="250" y="330" width="800" height="120" as="geometry" />
        </mxCell>
        <mxCell id="GCYgzdkRUOrWLfcpFG6K-41" value="Description" style="text;html=1;strokeColor=none;fillColor=none;align=left;verticalAlign=middle;whiteSpace=wrap;rounded=0;fontStyle=1;fontSize=20;" parent="1" vertex="1">
          <mxGeometry x="73" y="376" width="145" height="30" as="geometry" />
        </mxCell>
        <mxCell id="GCYgzdkRUOrWLfcpFG6K-45" value="&lt;ul style=&quot;&quot;&gt;&lt;li style=&quot;font-size: 14px;&quot;&gt;&lt;span style=&quot;font-weight: 400;&quot;&gt;use bootstrap to obtain the CI of estimated parameters&lt;/span&gt;&lt;/li&gt;&lt;/ul&gt;" style="text;html=1;strokeColor=none;fillColor=none;align=left;verticalAlign=middle;whiteSpace=wrap;rounded=0;fontSize=14;fontStyle=1" parent="1" vertex="1">
          <mxGeometry x="704" y="307.5" width="188" height="115" as="geometry" />
        </mxCell>
        <mxCell id="GCYgzdkRUOrWLfcpFG6K-46" value="&lt;ul style=&quot;&quot;&gt;&lt;li style=&quot;font-size: 14px;&quot;&gt;&lt;span style=&quot;font-weight: 400;&quot;&gt;predict timelines or number of events&lt;/span&gt;&lt;/li&gt;&lt;li style=&quot;font-size: 14px;&quot;&gt;&lt;span style=&quot;font-weight: 400;&quot;&gt;obtain the CI of predicted results&lt;/span&gt;&lt;/li&gt;&lt;/ul&gt;" style="text;html=1;strokeColor=none;fillColor=none;align=left;verticalAlign=middle;whiteSpace=wrap;rounded=0;fontSize=14;fontStyle=1" parent="1" vertex="1">
          <mxGeometry x="867" y="315.5" width="188" height="115" as="geometry" />
        </mxCell>
        <mxCell id="GCYgzdkRUOrWLfcpFG6K-57" value="&lt;ul style=&quot;&quot;&gt;&lt;li style=&quot;font-size: 14px;&quot;&gt;&lt;span style=&quot;font-weight: 400;&quot;&gt;split dataset into training and testing sets&lt;/span&gt;&lt;/li&gt;&lt;li style=&quot;font-size: 14px;&quot;&gt;&lt;span style=&quot;font-weight: 400;&quot;&gt;recensor training data at the cut off time&lt;/span&gt;&lt;/li&gt;&lt;/ul&gt;" style="text;html=1;strokeColor=none;fillColor=none;align=left;verticalAlign=middle;whiteSpace=wrap;rounded=0;fontSize=14;fontStyle=1" parent="1" vertex="1">
          <mxGeometry x="383" y="324.5" width="188" height="115" as="geometry" />
        </mxCell>
        <mxCell id="GCYgzdkRUOrWLfcpFG6K-58" value="&lt;ul style=&quot;&quot;&gt;&lt;li style=&quot;font-size: 14px;&quot;&gt;&lt;font data-font-src=&quot;https://fonts.googleapis.com/css?family=IBM+Plex+Mono&quot; style=&quot;font-size: 14px; font-weight: normal;&quot;&gt;simulate TTE data with censoring and death&lt;/font&gt;&lt;/li&gt;&lt;li style=&quot;font-size: 14px;&quot;&gt;&lt;span style=&quot;font-weight: 400; font-size: 14px;&quot;&gt;multiple arms and stratifications&lt;/span&gt;&lt;/li&gt;&lt;li style=&quot;&quot;&gt;&lt;span style=&quot;font-weight: 400;&quot;&gt;custom&amp;nbsp; distributions for TTE, censor, death&lt;/span&gt;&lt;/li&gt;&lt;/ul&gt;" style="text;html=1;strokeColor=none;fillColor=none;align=left;verticalAlign=middle;whiteSpace=wrap;rounded=0;fontSize=14;fontStyle=1;spacing=2;" parent="1" vertex="1">
          <mxGeometry x="224" y="332.5" width="188" height="115" as="geometry" />
        </mxCell>
        <mxCell id="GCYgzdkRUOrWLfcpFG6K-59" value="&lt;ul style=&quot;&quot;&gt;&lt;li style=&quot;font-size: 14px;&quot;&gt;&lt;span style=&quot;font-weight: 400;&quot;&gt;fit piece exponential model with fixed, partial fixed or unknown breakpoints&lt;/span&gt;&lt;/li&gt;&lt;li style=&quot;font-size: 14px;&quot;&gt;&lt;span style=&quot;font-weight: 400;&quot;&gt;obtain AIC, BIC, CV likelihood&lt;/span&gt;&lt;/li&gt;&lt;/ul&gt;" style="text;html=1;strokeColor=none;fillColor=none;align=left;verticalAlign=middle;whiteSpace=wrap;rounded=0;fontSize=14;fontStyle=1" parent="1" vertex="1">
          <mxGeometry x="543" y="333.5" width="188" height="115" as="geometry" />
        </mxCell>
        <mxCell id="GCYgzdkRUOrWLfcpFG6K-60" value="&lt;font data-font-src=&quot;https://fonts.googleapis.com/css?family=IBM+Plex+Mono&quot; face=&quot;IBM Plex Mono&quot; style=&quot;font-size: 16px;&quot;&gt;plot_survival()&lt;br&gt;&lt;/font&gt;" style="text;html=1;strokeColor=none;fillColor=none;align=center;verticalAlign=middle;whiteSpace=wrap;rounded=0;fontSize=16;fontStyle=1" parent="1" vertex="1">
          <mxGeometry x="755" y="500" width="110" height="80" as="geometry" />
        </mxCell>
        <mxCell id="H9Ek8xvAszThuOrMYr3f-3" value="Study design/plan:" style="text;html=1;strokeColor=none;fillColor=none;align=left;verticalAlign=middle;whiteSpace=wrap;rounded=0;fontSize=15;fontStyle=1" vertex="1" parent="1">
          <mxGeometry x="255" y="585" width="167" height="30" as="geometry" />
        </mxCell>
        <mxCell id="H9Ek8xvAszThuOrMYr3f-4" value="Piecewise exponential dist:" style="text;html=1;strokeColor=none;fillColor=none;align=left;verticalAlign=middle;whiteSpace=wrap;rounded=0;fontSize=15;fontStyle=1" vertex="1" parent="1">
          <mxGeometry x="255" y="608" width="258" height="30" as="geometry" />
        </mxCell>
        <mxCell id="H9Ek8xvAszThuOrMYr3f-5" value="Conditional piecewise exp dist:" style="text;html=1;strokeColor=none;fillColor=none;align=left;verticalAlign=middle;whiteSpace=wrap;rounded=0;fontSize=15;fontStyle=1" vertex="1" parent="1">
          <mxGeometry x="255" y="631" width="235" height="30" as="geometry" />
        </mxCell>
        <mxCell id="H9Ek8xvAszThuOrMYr3f-6" value="&lt;font data-font-src=&quot;https://fonts.googleapis.com/css?family=IBM+Plex+Mono&quot; face=&quot;IBM Plex Mono&quot; style=&quot;font-size: 14px;&quot;&gt;sim_followup()&lt;br style=&quot;font-size: 14px;&quot;&gt;&lt;/font&gt;" style="text;html=1;strokeColor=none;fillColor=none;align=left;verticalAlign=middle;whiteSpace=wrap;rounded=0;fontSize=14;fontStyle=0" vertex="1" parent="1">
          <mxGeometry x="415" y="587" width="520" height="26" as="geometry" />
        </mxCell>
      </root>
    </mxGraphModel>
  </diagram>
</mxfile>
